<?xml version="1.0" encoding="UTF-8"?>
<svg id="Lager_1" data-name="Lager 1" xmlns="http://www.w3.org/2000/svg" viewBox="0 0 1774.46 941.57">
  <rect fill="#ffffff" x="572.19" width="137.29" height="713.57"/>
  <path fill="#ffffff" d="m281.28,185.8c-72.71,0-120.53,32.1-148.97,61.28l-.04-47.37H0v713.57h137.3v-240.87c23.51,22.67,70.21,55.07,144.97,55.07,141.66,0,248.49-116.22,248.49-270.34s-109.59-271.34-249.48-271.34Zm-16.89,422.33c-78.37,0-133.11-62.09-133.11-150.99s55.98-151.98,133.11-151.98,135.1,63.92,135.1,151.98-56.82,150.99-135.1,150.99Z"/>
  <path fill="#ffffff" d="m1637.11,472.14c0,87.53-61.32,126.71-122.1,126.71-65.67,0-96.26-37.28-96.26-117.31V199.71h-137.36v302.73c0,74.98,18.16,132.51,53.98,171,33.6,36.11,81.43,54.41,142.18,54.41,67.06,0,117.95-20.1,159.48-63.15l.08,28.47c0,81.85-41.94,128.8-115.06,128.8-49.58,0-81.92-20.12-97.25-59.3h-135.81c23.6,116.93,106.48,178.9,233.06,178.9,77.92,0,142.46-23.74,186.64-68.66,43.03-43.73,65.77-106.25,65.77-180.78V199.71h-137.36v272.43Z"/>
  <path fill="#ffffff" d="m1011.96,522.84c72.77,0,129.44-15.01,168.45-44.61,40.27-30.57,60.69-74.56,60.69-130.76,0-50.34-19.08-90.53-56.69-119.45-36.41-28.02-84.89-42.22-144.09-42.22-52.33,0-101.33,19.04-142.14,55.14v-41.23h-131.98v331.58c0,62.96,20.19,112.19,60,146.33,39.13,33.54,94.73,50.54,165.23,50.54,66.09,0,120.66-14.91,162.19-44.32,43.42-30.76,68.15-73.55,73.22-132.85h-133.73c-4.67,21.24-13.11,33.65-29.38,44.58-17.28,11.61-39.96,17.5-67.41,17.5-30.83,0-54.94-6.92-71.66-20.57-16.03-13.1-23.82-30.88-23.82-54.38v-15.3h111.12Zm-117.23-102.22c-.76-37.86,10.99-68.71,34.96-91.73,17.57-16.86,48.47-36.97,96.01-36.97,36.5-.77,80.46,15.32,83.85,62.55.72,21.28-6.69,37.24-22.67,48.77-15.96,11.53-39.52,17.37-70.03,17.37h-122.12Z"/>
</svg>